<?xml version="1.0" encoding="utf-8"?>
<svg xmlns="http://www.w3.org/2000/svg" xmlns:xlink="http://www.w3.org/1999/xlink" style="margin: auto; background: none; display: block; shape-rendering: auto;" width="200px" height="200px" viewBox="0 0 100 100" preserveAspectRatio="xMidYMid">
<g transform="rotate(0 50 50)">
  <rect x="47" y="24" rx="3" ry="6" width="6" height="12" fill="#f55127">
    <animate attributeName="opacity" values="1;0" keyTimes="0;1" dur="0.35714285714285715s" begin="-0.32738095238095244s" repeatCount="indefinite"></animate>
  </rect>
</g><g transform="rotate(30 50 50)">
  <rect x="47" y="24" rx="3" ry="6" width="6" height="12" fill="#f55127">
    <animate attributeName="opacity" values="1;0" keyTimes="0;1" dur="0.35714285714285715s" begin="-0.29761904761904767s" repeatCount="indefinite"></animate>
  </rect>
</g><g transform="rotate(60 50 50)">
  <rect x="47" y="24" rx="3" ry="6" width="6" height="12" fill="#f55127">
    <animate attributeName="opacity" values="1;0" keyTimes="0;1" dur="0.35714285714285715s" begin="-0.2678571428571429s" repeatCount="indefinite"></animate>
  </rect>
</g><g transform="rotate(90 50 50)">
  <rect x="47" y="24" rx="3" ry="6" width="6" height="12" fill="#f55127">
    <animate attributeName="opacity" values="1;0" keyTimes="0;1" dur="0.35714285714285715s" begin="-0.23809523809523814s" repeatCount="indefinite"></animate>
  </rect>
</g><g transform="rotate(120 50 50)">
  <rect x="47" y="24" rx="3" ry="6" width="6" height="12" fill="#f55127">
    <animate attributeName="opacity" values="1;0" keyTimes="0;1" dur="0.35714285714285715s" begin="-0.20833333333333337s" repeatCount="indefinite"></animate>
  </rect>
</g><g transform="rotate(150 50 50)">
  <rect x="47" y="24" rx="3" ry="6" width="6" height="12" fill="#f55127">
    <animate attributeName="opacity" values="1;0" keyTimes="0;1" dur="0.35714285714285715s" begin="-0.1785714285714286s" repeatCount="indefinite"></animate>
  </rect>
</g><g transform="rotate(180 50 50)">
  <rect x="47" y="24" rx="3" ry="6" width="6" height="12" fill="#f55127">
    <animate attributeName="opacity" values="1;0" keyTimes="0;1" dur="0.35714285714285715s" begin="-0.14880952380952384s" repeatCount="indefinite"></animate>
  </rect>
</g><g transform="rotate(210 50 50)">
  <rect x="47" y="24" rx="3" ry="6" width="6" height="12" fill="#f55127">
    <animate attributeName="opacity" values="1;0" keyTimes="0;1" dur="0.35714285714285715s" begin="-0.11904761904761907s" repeatCount="indefinite"></animate>
  </rect>
</g><g transform="rotate(240 50 50)">
  <rect x="47" y="24" rx="3" ry="6" width="6" height="12" fill="#f55127">
    <animate attributeName="opacity" values="1;0" keyTimes="0;1" dur="0.35714285714285715s" begin="-0.0892857142857143s" repeatCount="indefinite"></animate>
  </rect>
</g><g transform="rotate(270 50 50)">
  <rect x="47" y="24" rx="3" ry="6" width="6" height="12" fill="#f55127">
    <animate attributeName="opacity" values="1;0" keyTimes="0;1" dur="0.35714285714285715s" begin="-0.059523809523809534s" repeatCount="indefinite"></animate>
  </rect>
</g><g transform="rotate(300 50 50)">
  <rect x="47" y="24" rx="3" ry="6" width="6" height="12" fill="#f55127">
    <animate attributeName="opacity" values="1;0" keyTimes="0;1" dur="0.35714285714285715s" begin="-0.029761904761904767s" repeatCount="indefinite"></animate>
  </rect>
</g><g transform="rotate(330 50 50)">
  <rect x="47" y="24" rx="3" ry="6" width="6" height="12" fill="#f55127">
    <animate attributeName="opacity" values="1;0" keyTimes="0;1" dur="0.35714285714285715s" begin="0s" repeatCount="indefinite"></animate>
  </rect>
</g>
<!-- [ldio] generated by https://loading.io/ --></svg>